*********** Devil´s.Playground.2010.DVDRiP.XviD.SWESUB-Zen_Bud ************

Format                           : AVI
File size                        : 707 MiB
Duration                         : 1h 33mn
Overall bit rate                 : 1 063 Kbps

Video

Format                           : MPEG-4 Visual
Codec ID/Hint                    : XviD
Duration                         : 1h 33mn
Bit rate                         : 938 Kbps
Width                            : 720 pixels
Height                           : 408 pixels
Display aspect ratio             : 2.092
Stream size                      : 624 MiB (88%)
Writing library                  : XviD 1.1.2 

Audio

Format                           : MPEG Audio
Codec ID/Hint                    : MP3
Duration                         : 1h 33mn
Bit rate                         : 112 Kbps
Channel(s)                       : 2 channels
Sampling rate                    : 48.0 KHz
Stream size                      : 74.5 MiB (11%)
Writing library                  : LAME3.98

As the world succumbs to a zombie apocalypse, Cole a hardened mercenary, 
is chasing the one person who can provide a cure.
Not only to the plague but to Cole's own incumbent destiny. 
DEVIL'S PLAYGROUND is a cutting edge 
British horror film that features zombies portrayed by free runners for a terrifyingly authentic representation of the undead